<?xml version="1.0" encoding="UTF-8"?>
<svg id="Layer_1" data-name="Layer 1" xmlns="http://www.w3.org/2000/svg" viewBox="0 0 1125.41 1038.92">
  <path d="M1125.36,478.25L723.93,76.82l-.27.28c-.18-.17-.34-.35-.5-.52-21.26-21.24-44.65-39.12-69.53-53.13-25.35-14.27-53-22.1-82.2-23.31-29.24-1.19-60.48,5.9-92.9,21.12-32.13,15.1-66.66,40.98-102.61,76.93l-205.72,205.7L0,474.1l53.27,53.26,511.48,511.49.08.06,560.58-560.59h0s-.06-.08-.06-.08ZM318.72,268.96l99.52-99.54c47.58-47.58,91.36-73.8,130.07-77.91,38.11-4.02,74.27,10.86,107.75,44.34,22.93,22.93,38.15,45.17,45.24,66.11,6.97,20.68,8.24,41.54,3.76,62.01-4.59,20.85-14.73,42.26-30.13,63.63-15.77,21.87-35.9,45.14-59.85,69.1l-84.32,84.31c-15.77,15.77-41.34,15.77-57.1,0l-154.93-154.93c-15.77-15.77-15.77-41.33,0-57.1ZM649.27,840.07l-84.44,84.45L141.46,501.16c-15.77-15.77-15.77-41.34,0-57.11l55.89-55.89c15.77-15.77,41.34-15.77,57.11,0l394.81,394.8c15.77,15.77,15.77,41.34,0,57.11ZM982.46,506.88l-212.9,212.9c-15.77,15.77-41.34,15.77-57.11,0l-124.9-124.89c-15.77-15.77-15.77-41.34,0-57.11l82.82-82.81c25.54-25.54,48.94-53.75,69.56-83.83,20.86-30.45,35.61-62.24,43.83-94.48,1.8-7.08,3.15-14.23,4.19-21.4l194.5,194.51c15.77,15.77,15.77,41.34,0,57.11Z"/>
</svg>